<?xml version="1.0" encoding="UTF-8"?>
<svg width="17px" height="17px" viewBox="0 0 17 17" version="1.1" xmlns="http://www.w3.org/2000/svg" xmlns:xlink="http://www.w3.org/1999/xlink">
    <!-- Generator: Sketch 51.2 (57519) - http://www.bohemiancoding.com/sketch -->
    <title>Group</title>
    <desc>Created with Sketch.</desc>
    <defs></defs>
    <g id="Page-1" stroke="none" stroke-width="1" fill="none" fill-rule="evenodd">
        <g id="Group" transform="translate(1.000000, 1.000000)">
            <path d="M11.306977,10.7820264 C11.191976,10.6670254 11.0055225,10.6670254 10.8905215,10.7820264 L10.751703,10.9208449 C10.636702,11.0358459 10.636702,11.2222994 10.751703,11.3373005 L14.7774398,15.3630372 C14.8924408,15.4780382 15.0788943,15.4780382 15.1938953,15.3630372 L15.3327138,15.2242187 C15.4477148,15.1092177 15.4477148,14.9227642 15.3327138,14.8077632 L11.306977,10.7820264 Z M10.2692042,10.7550689 L8.98652786,9.47239264 L9.47239264,8.98652786 L10.7650404,10.2791756 C11.0560609,10.1426204 11.4135984,10.1945553 11.6540233,10.4349801 L15.6797601,14.4607169 C15.9864294,14.7673863 15.9864294,15.2645956 15.6797601,15.571265 L15.5409416,15.7100835 C15.2342722,16.0167529 14.7370629,16.0167529 14.4303935,15.7100835 L10.4046567,11.6843467 C10.1530106,11.4327006 10.1078597,11.0527547 10.2692042,10.7550689 Z" id="Combined-Shape" fill="#0A486A" fill-rule="nonzero"></path>
            <circle id="Oval-2" stroke="#0A486A" cx="5.5" cy="5.5" r="5.5"></circle>
            <circle id="Oval-2" stroke="#C44E4E" stroke-width="2" cx="5.5" cy="5.5" r="3.5"></circle>
        </g>
    </g>
</svg>